<svg id="Artwork" xmlns="http://www.w3.org/2000/svg" viewBox="0 0 600 207.7"><defs><style>.cls-1{fill:#363636;}</style></defs><title>sydeney_logo</title><path class="cls-1" d="M260.7,74.7H249.3V73.2h3.9V50.7h-7.9v3.2h-1.9V47.7h1.9v1.1h19.3V47.7h1.9v6.2h-1.9V50.7h-7.9V73.3h3.9A6.6,6.6,0,0,1,260.7,74.7Z" transform="translate(-10.1 -3.9)"/><path class="cls-1" d="M296.6,74.7h-9.4V73.2h3V62.4H275.4V73.3h3v1.5H269V73.3h3V50.1h-3V48.6h9.4v1.5h-3V60.6h14.8V50.1h-3V48.6h9.4v1.5h-3V73.2h3Z" transform="translate(-10.1 -3.9)"/><path class="cls-1" d="M317.8,74.7h-18V73.2h3V50.1h-3V48.6h15.8V47.5h1.8v6.3h-1.8V50.4h-9.4V60.5h7.5v-3h1.8v7.8h-1.8v-3h-7.5V73h9.7V69.5h1.8l.1,5.2Z" transform="translate(-10.1 -3.9)"/><path class="cls-1" d="M356.8,50.1h-3v15c0,4.2-1.5,6.9-4.8,8.7a11.72,11.72,0,0,1-5.5,1.3c-5.7,0-9.9-3.8-9.9-9v-16h-3V48.6H340v1.5h-3V65c0,4.8,2.8,7.9,7.2,7.9s7.5-3.2,7.5-7.9V50.1h-3V48.6h7.9l.2,1.5Z" transform="translate(-10.1 -3.9)"/><path class="cls-1" d="M381.2,75.2H380L364.8,54.4v19h3v1.5h-8V73.4h3V51.6l-1.1-1.5H359V48.6h5.7l14.5,19.8V50.1h-3V48.6h7.9v1.5h-3l.1,25.1Z" transform="translate(-10.1 -3.9)"/><path class="cls-1" d="M396.4,74.7H387V73.2h3V50.1h-3V48.6h9.4v1.5h-3V73.2h3Z" transform="translate(-10.1 -3.9)"/><path class="cls-1" d="M412.4,75.4H411l-9.9-25.3h-2.3V48.6h9.8v1.5h-3.7l7.7,19.4,7.6-19.4h-2.6V48.6h6.8v1.5h-2l-10,25.3Z" transform="translate(-10.1 -3.9)"/><path class="cls-1" d="M444.6,74.7h-18V73.2h3V50.1h-3V48.6h15.8V47.5h1.8v6.3h-1.8V50.4H433V60.5h7.5v-3h1.8v7.8h-1.8v-3H433V73h9.7V69.5h1.8l.1,5.2Z" transform="translate(-10.1 -3.9)"/><path class="cls-1" d="M471.1,74.7h-3.4c-2.3,0-2.8-.2-4.1-2.3L457.7,63h-3.1V73.2h3v1.5h-9.4V73.2h3V50.1h-3V48.6h11c3.8,0,6,1.1,7.2,3.5a8.53,8.53,0,0,1,.8,3.5c0,3.8-2.1,6.3-5.9,6.8l5.7,8.8c.9,1.5,1.6,1.9,2.6,1.9h1.5v1.6ZM454.8,61.2h3.8c3,0,5.1-2.2,5.1-5.4,0-3.4-1.9-5.3-5.2-5.3h-3.7Z" transform="translate(-10.1 -3.9)"/><path class="cls-1" d="M476.2,75.1h-1.9V68h1.9v3.1c2.4,1.6,3.5,2,5.2,2,3.2,0,5.3-1.7,5.3-4.1s-1.5-3.9-5.8-6.1c-5-2.6-6.7-4.6-6.7-7.8,0-3.9,3.3-6.8,7.8-6.8a9.33,9.33,0,0,1,4.7,1.1V48h1.8v6.8h-1.8V52c-2-1.3-3-1.7-4.6-1.7-2.7,0-4.4,1.6-4.4,4.1,0,2,1.1,3.2,6.1,6s6.4,4.6,6.4,7.8c0,4.1-3.4,7.3-7.9,7.3a10,10,0,0,1-6.1-1.8v1.4Z" transform="translate(-10.1 -3.9)"/><path class="cls-1" d="M503.2,74.7h-9.4V73.2h3V50.1h-3V48.6h9.4v1.5h-3V73.2h3Z" transform="translate(-10.1 -3.9)"/><path class="cls-1" d="M522.9,74.7H511.5V73.2h3.9V50.7h-7.9v3.2h-1.9V47.7h1.9v1.1h19.3V47.7h1.9v6.2h-1.9V50.7H519V73.3h3.9v1.4Z" transform="translate(-10.1 -3.9)"/><path class="cls-1" d="M547.9,74.7h-9.4V73.2h3V62.7l-8.2-12.6H531V48.6h9.8v1.5h-3.6L544,60.4l6.3-10.3h-3.6V48.6h7.9v1.5h-2.1l-7.6,12.4V73.3h3v1.4Z" transform="translate(-10.1 -3.9)"/><path class="cls-1" d="M564.7,61.8c0-7.4,5.8-13.5,12.8-13.5s12.6,6.2,12.6,13.5-5.8,13.5-12.6,13.5C570.5,75.3,564.7,69.1,564.7,61.8Zm3.9-.1c0,6.7,3.7,11.5,8.8,11.5s8.7-4.9,8.7-11.5-3.7-11.5-8.7-11.5-8.8,4.8-8.8,11.5Z" transform="translate(-10.1 -3.9)"/><path class="cls-1" d="M601.9,74.7h-9.4V73.2h3V50.1h-3V48.6h15.8V47.5h1.8v6.3h-1.8V50.4H599V60.5h7.5v-3h1.8v7.8h-1.8v-3H599V73.2h3l-.1,1.5Z" transform="translate(-10.1 -3.9)"/><path class="cls-1" d="M248.4,159.1h-4.9V140.4h4.9v8.2c6.3,4.3,9.2,5.3,13.7,5.3,8.3,0,13.9-4.4,13.9-10.9,0-5.9-4.1-10.3-15.3-16.1-13.1-6.9-17.6-12.1-17.6-20.7,0-10.3,8.7-18,20.5-18,5.2,0,9.1.9,12.4,2.9V87.4h4.8v17.8H276V97.8c-5.3-3.5-7.9-4.6-12.1-4.6-7.1,0-11.7,4.3-11.7,10.7,0,5.3,3,8.4,16,15.9S285,131.9,285,140.4c0,10.8-8.9,19.1-20.7,19.1a26.69,26.69,0,0,1-16-4.7l.1,4.3Z" transform="translate(-10.1 -3.9)"/><path class="cls-1" d="M331.5,158.2H306.7v-3.8h7.8V126.6L293,93.3h-6V89.4h25.7v3.9h-9.5l17.9,27.3,16.5-27.3h-9.5V89.4H349v3.9h-5.4l-20,32.6v28.4h7.9v3.9Z" transform="translate(-10.1 -3.9)"/><path class="cls-1" d="M354.2,158.2v-3.8H362v-61h-7.8V89.5h30.7a34.23,34.23,0,0,1,34,34.3c0,19.3-15,34.4-34.1,34.4Zm16.9-5.2h12.5c14.3,0,25.1-12.6,25-29.1,0-16.1-11-29.1-24.8-29.1H371.1Z" transform="translate(-10.1 -3.9)"/><path class="cls-1" d="M478.9,159.3h-3.2l-40-55v50h7.9v3.8h-21v-3.8h7.9V97.2l-2.8-4h-7.2V89.3h15.1l38.1,52.3V93.3h-7.9V89.4h20.9v3.9h-7.8Z" transform="translate(-10.1 -3.9)"/><path class="cls-1" d="M541.2,158.2H493.9v-3.8h7.8v-61h-7.8V89.5h41.5V86.6h4.8v16.5h-4.7V94.3H510.8V121h19.7v-7.8l4.8-.1v20.5l-4.8.1v-8H510.8v27.9h25.6v-9.2h4.8Z" transform="translate(-10.1 -3.9)"/><path class="cls-1" d="M592.6,158.2H567.8v-3.8h7.8V126.6L554.1,93.4h-6V89.5h25.7v3.9h-9.5l17.9,27.3,16.5-27.3h-9.5V89.5H610v3.9h-5.4l-20,32.6v28.4h7.9l.1,3.8Z" transform="translate(-10.1 -3.9)"/><path class="cls-1" d="M113,138.9h15.4v-2.3H113Zm0,6.3h15.4v-2.3H113Zm0-12.7h15.4v-2.3H113Zm-11.1,4H86.6v2.3H102A17,17,0,0,1,101.9,136.5Zm0,6.4H86.6v2.3H102A17.7,17.7,0,0,1,101.9,142.9Zm0-12.7H86.6v2.3H102A17.7,17.7,0,0,1,101.9,130.2Zm24.4-40.8c-6.2-.3-12.6-.5-18.9-.5s-12.6.2-18.8.5v31H29.2a92.12,92.12,0,0,0,17.3,40.4,6.36,6.36,0,0,1,5.3-2.7H88.6v32.3a68.83,68.83,0,0,0,18.8,2.6v.3h0V193a68.83,68.83,0,0,0,18.8-2.6V158.2H163a6.62,6.62,0,0,1,5.3,2.7,92,92,0,0,0,17.2-40.4H126.2V89.4ZM96.6,99.1l8,3.8,2.9-8.3,3,8.4,7.9-3.9-3.8,8,8.3,2.9-8.4,3,3.9,7.9-8-3.8-2.9,8.3-3-8.4-7.9,3.9,3.8-8L92,110l8.4-3ZM68.5,150.3l-7.9-3.9-3,8.4-2.9-8.3-8.1,3.8,3.9-7.9-8.4-3,8.3-2.9-3.8-8,7.9,3.9,3-8.4,2.9,8.3,8-3.8-3.9,7.9,8.4,3-8.3,2.9Zm12.7-.6H77.7v-2.6h3.5Zm0-6.8H77.7v-2.6h3.5Zm0-6.9H77.7v-2.6h3.5Zm0-6.8H77.7v-2.6h3.5Zm1.9,20.5V125H99.6a6.13,6.13,0,0,1,6.3,6.2V152a6.23,6.23,0,0,0-4.8-2.2C100.8,149.7,88,149.7,83.1,149.7Zm35.3,32.2-8-3.8-2.9,8.3-3-8.4-7.9,3.9,3.8-8L92,171l8.4-3-3.9-7.9,8,3.8,2.9-8.3,3,8.4,7.9-3.9-3.8,8,8.3,2.9-8.4,3C114.5,174,118.4,181.9,118.4,181.9Zm28-53.4,8,3.8,2.9-8.3,3,8.4,7.9-3.9-3.8,8,8.3,2.9-8.4,3,3.9,7.9-8-3.8-2.9,8.3-3-8.4-7.9,3.9,3.8-8-8.3-2.9,8.4-3C150.2,136.4,146.4,128.5,146.4,128.5Zm-12.7-1.9h3.5v2.6h-3.5Zm0,6.9h3.5v2.6h-3.5Zm0,6.8h3.5v2.6h-3.5Zm0,6.9h3.5v2.6h-3.5Zm-1.9-22.1v24.7H113.9a6.41,6.41,0,0,0-4.8,2.2V131.3a6.13,6.13,0,0,1,6.3-6.2h16.4ZM162.4,19.9c-15.3-3.2-35.5-6.4-55-6.4-29.2,0-60,7.2-73.6,10.9-2.7.7-4.7,1.3-5.9,1.6V92.4c8.8-1.4,45.1-6.9,79.5-6.9s70.7,5.5,79.5,6.9V26c-1.2-.3-3.2-.9-5.9-1.6C176.5,23.2,170.1,21.6,162.4,19.9Zm-83,7c1.2-.3-1.4-2.3.3-2.2,1.1.1,4.7.1,7.5,1.4.5.2.8-.8,1.9-1.4a.45.45,0,0,1,.5,0c1.1.7,1.5,1.6,2,1.4,2.7-1.3,6.3-1.3,7.4-1.4,1.8-.1-.9,1.9.3,2.2a13.51,13.51,0,0,1,10.8,12.9,12.63,12.63,0,0,1-1.1,5.1c-.3.8-1.2-1.6-1.5-.2a23.82,23.82,0,0,1-2.6,7c-1.3,2.4-3.4-2.6-4.1-1.2-1.2,2.5-4,3.4-6,3.7-.2,0-.4,0-.2-.3a2.1,2.1,0,0,0,.7-1.4c0-.1,0-.2.2-.3a5.19,5.19,0,0,0,2.9-3.7,31.3,31.3,0,0,1,1.9-5.1c1.7-3-.4-6.6.2-7.4a4.07,4.07,0,0,0,1.9-3.5,4.23,4.23,0,0,0-4.2-4.2A4.53,4.53,0,0,0,95,29.7l-.1.1a6.89,6.89,0,0,0-1.1,1.3,1,1,0,0,0,.4,1.6c2.9.8,4.8,7.2,3.6,9.4-.5.9-2.1,4.4-2.1,5.5A2.43,2.43,0,0,1,93.3,50a2.39,2.39,0,0,1-2.2-1.5v-.1c.8-.5,2.6-1.6,2.6-2.7L93.4,42a2.47,2.47,0,0,0,2.3-2.3c.1-.1.3-.2.4-.3.5-.4.8-1.6-.2-1.5a41.13,41.13,0,0,0-4.7.7c-.2.1-.4.2-.4.5s.9,4.6,1.1,5.6a.35.35,0,0,1-.1.2,17,17,0,0,0-2.1-.1c-.3,0-1.4.1-2.1.1-.1,0-.2-.1-.1-.2.2-1,1.2-5.3,1.2-5.3a.75.75,0,0,0-.1-.5c-.3-.4-4.5-.8-5.1-.9-.2,0-.5,0-.6.2-.4.6.3,1.2.8,1.5A2.47,2.47,0,0,0,86,42a.1.1,0,0,0,.1.1c0,.2-.4,3.5-.4,3.5,0,1.1,1.7,2.1,2.6,2.6,0,.1.1.1.1.2a2.46,2.46,0,0,1-2.2,1.4,2.43,2.43,0,0,1-2.4-2.4,24.25,24.25,0,0,0-2.2-5.5c-1.3-2.2.6-8.6,3.6-9.3a1,1,0,0,0,.5-1.6c-1.3-1.2-2.7-2.8-4.6-2.8a4.23,4.23,0,0,0-4.2,4.2c0,2.7,2.1,3.1,1.9,3.8a9.09,9.09,0,0,0,.3,7.1,20.52,20.52,0,0,1,1.8,4.9,5.27,5.27,0,0,0,2.6,3.7c.7.4.3.9.6,1.4.1.3.3.4.5.6s.1.3-.2.2c-2-.2-5-1.1-6.3-3.7C77.4,49,75.3,54,74,51.6a24.91,24.91,0,0,1-2.6-7c-.3-1.4-1.2,1-1.6.2a14.55,14.55,0,0,1-1.1-5.1c-.1-6.1,4.5-11.3,10.7-12.8Zm17.7,4.4a.3.3,0,0,1,0-.4,2.1,2.1,0,0,1,1.1-.4,1.9,1.9,0,0,1,1.9,1.9,2.13,2.13,0,0,1-.7,1.5c-.1.1-.3,0-.4-.1A6.92,6.92,0,0,0,97.1,31.3ZM92.8,52.6c-.5,1.2-2.1.8-3,1.5-.1.1-.4.1-.4,0-.9-.8-2.6-.4-3.1-1.7a.4.4,0,0,1,.2-.4,4.81,4.81,0,0,0,3-1.5c.1-.1.3-.2.4,0A4.87,4.87,0,0,0,92.6,52,.5.5,0,0,1,92.8,52.6ZM80.1,33.9c0,.1-.2.1-.4,0a2,2,0,0,1-.7-1.5A1.91,1.91,0,0,1,82.2,31c.1.1.1.4,0,.4A10,10,0,0,0,80.1,33.9ZM63.3,58.2a4.55,4.55,0,0,0-2.8,1c-.6.4-.8-.7-.1-3.1.6-1.9-3.1-2.9-4-2a5.11,5.11,0,0,1-7.4-.4c-.6-.6,1.4-.4,1.5-1A3.86,3.86,0,0,1,51.8,51a.52.52,0,0,0-.1-.8,3.42,3.42,0,0,1-1.9-3.6c0-.3-1.6-.4-1.1-.9,2.9-2.7,6-1,7.3-.1.2.1.7.1.7-.3.1-.9-.4-1.4,1.4-2.9.3-.3-1-1.4-.1-1.4,6,1.5,3.3,7.7,4.5,8.8,2.3,2,7.8,3.6,13,4.7.4.1,2.1.7,2.4.8,4.2,2.1,6.7,1.9,9,1,.7-.3.7.6.5.9-8.3,7.9-14.6,5.9-16.9,4.5-1.6-1-4.7-1-6.2,1-.3.2-.7.4-.9-.2a4.82,4.82,0,0,1,.5-3.6C64.3,58.4,63.6,58.2,63.3,58.2Zm79.3,7.4a8.71,8.71,0,0,1-6.3,1.9,2.51,2.51,0,0,0-2.3.7,1.74,1.74,0,0,0-.3.7,2.47,2.47,0,0,0,.4,1.9q.45.75-.3.9a4.26,4.26,0,0,1-2.6-.5c-.6-.3-.8.1-.8.4a2,2,0,0,0,1.1,2.1c.5.4.4.8-.3,1-1.2.4-2.3-.1-4-1.1-1-.6-1.8-.7-2.5.2-.4.5-.4.9-.1,1.1.7.7,1.1,2-.6,4.1-.6.7-1.2-1.2-1.7-1a3.91,3.91,0,0,1-4.9-1.3.62.62,0,0,0-.9,0c-1.2.8-3.6,2.1-4.6-.2-.1-.3-1.5.5-1.5-.1.1-3.7,3.3-4.4,4.6-4.5q.6,0,.3-.6c-.5-.8-1.2-1.8-.8-2.9.3-.8-1.9-1-1-1.4,4.2-2.1,6.6,1.9,7.3,2.4,1.2.7,6.8-1.1,7.4-4.1.1-.6-1.3-.8-2.7-1.2-.3-.1-.4-.4.1-.8,3.4-2.5,6-5.7,12.1-6.3a1,1,0,0,1,1.1.8,8.42,8.42,0,0,0,.8,2.7,10.54,10.54,0,0,0,3,3.9A.91.91,0,0,1,142.6,65.6ZM168,63.7c.5.3.5.6.2,1s-1,.7-2.5.7c-.7,0-.6.4-.6.7.1.7.9,1.2,1.9,1.3.6.1.7.5.2,1.1-.9.9-2.1.9-4.1.8s-3.4,2.2-2.3,3.2c.7.6,2.3,2.1,1,5.9-.4,1.2-1.1-1.1-1.7-.7-1.6.9-2.9-.2-3.6-1.1-.3-.4-.6-.4-.8,0-.6,1.1-2.3,3-5.6,1.2-.7-.4-2.2.9-2.3.5a4.61,4.61,0,0,1,1.9-4.9c.1-.1.5-.7-.2-.7-1.1-.1-2.5-.4-2.6-1.8,0-.3-1.4-.2-1.4-.6.3-1.9,4.5-3.3,7.4-1.4,2.4,1.6,5.5-3.9,3.3-6.5-1.6-1.9-10.9,3.3-14.1-3.4-1.3-2.7.3-5-1-5.2s-7.1-1.4-13.6,3.8c-11,8.8-22.9,4-25.7,2-.4-.1-.9.2-.7.7a2.9,2.9,0,0,1-.3,3C99.7,65,95.7,66.8,95,67c-4.6,1.4-4.1,4.9-3.6,6.5.1.5,0,.8-.5.7-1.4-.3-4.3-1.1-5.4-3.9-.2-.3-.5-.3-.9-.1a2.83,2.83,0,0,0-.7,3.8c.2.3.1.6-.3.7-1.6.2-2.7-1.6-4.1-1.5A6.47,6.47,0,0,0,77,74.4c-.3.2-.3.6-.1,1.1,1.7,5.1-1.1,5.3-1.3,5.2s-.1-1-.9-1.1a3.12,3.12,0,0,1-3.7-3c-.1-.4-.2-.6-.5-.4-1.1.7-3.6,2.2-5.3.1-.2-.3-1,0-1.4.2s-.3-.4-.3-.6a5.43,5.43,0,0,1,3.3-4.7c.4-.2.4-.4.1-.6-.9-.7-2.4-2.1-1.9-3.6.1-.3-1.3-.8-.9-1.1,3.2-2.3,7.3,1.5,7.8,1.9s3.5.5,10.9-3.6c4.7-2.6,7.2-4.8,8.5-6.5a1.9,1.9,0,0,1,1-.6c3-.1,5.9-.5,8.2-2.6.4-.4.8-.2.9,0,4.2,2.9,6.4-3.6,7.3-6.6.1-.6.2-1.1.9-1.1,15.6.7,45.2.6,45.2.6s3.9.3,3.7-2.1c-.3-3.9-16.4-3.8-28.5-2.1-4.4.6-10.7.9-14.5-.5a6.67,6.67,0,0,1-3.5-2.8,5.06,5.06,0,0,1-.4-3.5,8.92,8.92,0,0,1,1-2.3c3.1-4.8,10.2-5.1,12.4-5.1.4,0,.7-.2.7-.5a4.41,4.41,0,0,1,4-3.8,9.84,9.84,0,0,0,2.2-.6c.4-.2.6-.1.5.2a2.79,2.79,0,0,1-.7,1.3c-2.1,1.8-1.8,2.6-1.5,2.9.1.1.3.1.5-.1,6.4-5.5,10.1-1.9,11.2-.7.2.2.2.5-.1.6-4.3,1-6,4.8-14.8,4.2-1.1-.1-8.3-.4-10.6,2.8-1.3,1.9-.4,3.7,3.5,4.5,3,.6,9.9-.4,13.1-.6s17.1-2,24.4.1c3.1.9,7.5,3.3,6.7,8a6.22,6.22,0,0,1-3.4,4.1s-8,5.6,6.3,5.7c4.4,0,.1,3.7-.2,4.8C166.6,62.6,167.3,63.3,168,63.7ZM141.7,32.6a5.55,5.55,0,0,0-1.7.7c-1.3.9-6.5,3-8.1.4a10.71,10.71,0,0,0,6-2.2s2.5-.9,4,.5C142,32.2,142.1,32.5,141.7,32.6ZM107.5,3.9c-48.8,0-97.4,13-97.4,13V81.8c0,58.5,41.9,119.3,97.3,129.8,57.5-11.2,97.4-71.3,97.4-129.8V16.9s-40.7-13-97.3-13Zm82.8,101.5c0,47.6-36.2,90.9-82.9,90.9h0c-46.7-.1-82.9-43.3-82.9-90.9v-82l1.2-.4c.1,0,42.1-13,81.7-13s81.7,13,81.7,13l1.2.4v82Z" transform="translate(-10.1 -3.9)"/></svg>