<?xml version="1.0" encoding="UTF-8" standalone="no"?>
<!-- Created with Inkscape (http://www.inkscape.org/) -->

<svg
   width="51.514374mm"
   height="54.953957mm"
   viewBox="0 0 51.514374 54.953957"
   version="1.1"
   id="svg277"
   xmlns="http://www.w3.org/2000/svg"
   xmlns:svg="http://www.w3.org/2000/svg">
  <defs
     id="defs274" />
  <g
     id="layer1"
     transform="translate(0.01911544,-0.57462828)">
    <path
       class="cls-1"
       d="m 27.206509,36.293378 h 4.074584 v -0.608542 h -4.074584 z m 0,1.666875 h 4.074584 v -0.608542 h -4.074584 z m 0,-3.360209 h 4.074584 v -0.608541 h -4.074584 z m -2.936875,1.058334 h -4.048125 v 0.608541 h 4.074584 a 4.4979166,4.4979166 0 0 1 -0.02646,-0.608541 z m 0,1.693333 h -4.048125 v 0.608542 h 4.074584 a 4.6831249,4.6831249 0 0 1 -0.02646,-0.608542 z m 0,-3.360208 h -4.048125 v 0.608541 h 4.074584 a 4.6831249,4.6831249 0 0 1 -0.02646,-0.608541 z m 6.455834,-10.795 c -1.640417,-0.07937 -3.33375,-0.132292 -5.000625,-0.132292 -1.666875,0 -3.33375,0.05292 -4.974167,0.132292 v 8.202083 H 5.0344256 a 24.373416,24.373416 0 0 0 4.577292,10.689166 1.68275,1.68275 0 0 1 1.4022914,-0.714375 h 9.736667 v 8.546042 a 18.211271,18.211271 0 0 0 4.974167,0.687917 v 0.07937 0 -0.07937 a 18.211271,18.211271 0 0 0 4.974166,-0.687917 v -8.519583 h 9.736667 a 1.7515416,1.7515416 0 0 1 1.402291,0.714375 24.341666,24.341666 0 0 0 4.550834,-10.689167 H 30.699009 v -8.228541 z m -7.858125,2.566458 2.116666,1.005417 0.767292,-2.196042 0.79375,2.2225 2.090208,-1.031875 -1.005416,2.116667 2.196041,0.767292 -2.2225,0.79375 1.031875,2.090208 -2.116666,-1.005417 -0.767292,2.196042 -0.79375,-2.2225 -2.090208,1.031875 1.005416,-2.116667 -2.2225,-0.767291 2.2225,-0.79375 z m -7.434792,13.546666 -2.090208,-1.031874 -0.79375,2.222499 -0.767292,-2.196041 -2.1431254,1.005416 1.0318754,-2.090208 -2.2225004,-0.79375 2.1960424,-0.767291 -1.0054174,-2.116667 2.0902084,1.031875 0.79375,-2.2225 0.767292,2.196042 2.116667,-1.005417 -1.031875,2.090208 2.2225,0.79375 -2.196042,0.767292 z m 3.360208,-0.158749 h -0.926041 v -0.687917 h 0.926041 z m 0,-1.799167 h -0.926041 v -0.687917 h 0.926041 z m 0,-1.825625 h -0.926041 v -0.687917 h 0.926041 z m 0,-1.799167 h -0.926041 v -0.687916 h 0.926041 z m 0.502709,5.423959 v -6.535209 h 4.365625 a 1.6218958,1.6218958 0 0 1 1.666875,1.640417 v 5.503333 a 1.6483541,1.6483541 0 0 0 -1.27,-0.582083 c -0.07937,-0.02646 -3.466042,-0.02646 -4.7625,-0.02646 z m 9.339791,8.519583 -2.116666,-1.005417 -0.767292,2.196042 -0.79375,-2.2225 -2.090208,1.031875 1.005416,-2.116667 -2.2225,-0.767292 2.2225,-0.79375 -1.031875,-2.090208 2.116667,1.005417 0.767292,-2.196042 0.79375,2.2225 2.090208,-1.031875 -1.005417,2.116667 2.196042,0.767291 -2.2225,0.79375 c 0.02646,0 1.058333,2.090209 1.058333,2.090209 z m 7.408334,-14.12875 2.116666,1.005417 0.767292,-2.196042 0.79375,2.2225 2.090208,-1.031875 -1.005417,2.116667 2.196042,0.767291 -2.2225,0.79375 1.031875,2.090208 -2.116667,-1.005416 -0.767291,2.196041 -0.79375,-2.222499 -2.090208,1.031874 1.005416,-2.116666 -2.196041,-0.767292 2.222499,-0.79375 c -0.02646,0 -1.031874,-2.090208 -1.031874,-2.090208 z m -3.360209,-0.502708 h 0.926042 v 0.687916 h -0.926042 z m 0,1.825625 h 0.926042 v 0.687916 h -0.926042 z m 0,1.799166 h 0.926042 v 0.687917 h -0.926042 z m 0,1.825625 h 0.926042 v 0.687917 h -0.926042 z m -0.502708,-5.847291 v 6.535208 h -4.736042 a 1.6959791,1.6959791 0 0 0 -1.27,0.582083 v -5.476875 a 1.6218958,1.6218958 0 0 1 1.666875,-1.640416 z m 8.09625,-27.8341667 c -4.048125,-0.846666 -9.392708,-1.693333 -14.552083,-1.693333 -7.725834,0 -15.8750004,1.905 -19.4733334,2.883958 -0.714375,0.185209 -1.243542,0.343959 -1.561042,0.423334 V 23.990253 c 2.328333,-0.370417 11.9327084,-1.825625 21.0343754,-1.825625 9.101666,0 18.706041,1.455208 21.034374,1.825625 V 6.4219203 c -0.3175,-0.07937 -0.846666,-0.238125 -1.561041,-0.423334 -1.190625,-0.3175 -2.883959,-0.740833 -4.92125,-1.190625 z m -21.960417,1.852084 c 0.3175,-0.07938 -0.370416,-0.608542 0.07937,-0.582084 0.291042,0.02646 1.243542,0.02646 1.984375,0.370417 0.132292,0.05292 0.211667,-0.211667 0.502709,-0.370417 a 0.1190625,0.1190625 0 0 1 0.132291,0 c 0.291042,0.185209 0.396875,0.423334 0.529167,0.370417 0.714375,-0.343958 1.666875,-0.343958 1.957917,-0.370417 0.47625,-0.02646 -0.238125,0.502709 0.07937,0.582084 a 3.5745208,3.5745208 0 0 1 2.8575,3.4131247 3.3416875,3.3416875 0 0 1 -0.291042,1.349375 c -0.07937,0.211666 -0.3175,-0.423334 -0.396875,-0.05292 a 6.3023749,6.3023749 0 0 1 -0.687917,1.852083 c -0.343958,0.635 -0.899583,-0.687917 -1.084791,-0.3175 -0.3175,0.661458 -1.058334,0.899583 -1.5875,0.978958 -0.05292,0 -0.105834,0 -0.05292,-0.07938 a 0.55562499,0.55562499 0 0 0 0.185208,-0.370416 c 0,-0.02646 0,-0.05292 0.05292,-0.07937 a 1.3731875,1.3731875 0 0 0 0.767292,-0.978959 8.2814582,8.2814582 0 0 1 0.502708,-1.349375 c 0.449792,-0.793749 -0.105833,-1.7462487 0.05292,-1.9579157 a 1.0768542,1.0768542 0 0 0 0.502708,-0.926042 1.1191875,1.1191875 0 0 0 -1.11125,-1.11125 1.1985625,1.1985625 0 0 0 -0.846667,0.370417 l -0.02646,0.02646 a 1.8229791,1.8229791 0 0 0 -0.291042,0.343959 0.26458333,0.26458333 0 0 0 0.105834,0.423333 c 0.767291,0.211667 1.27,1.9049997 0.9525,2.4870827 -0.132292,0.238125 -0.555625,1.164167 -0.555625,1.455208 a 0.64293749,0.64293749 0 0 1 -0.635,0.635 0.63235416,0.63235416 0 0 1 -0.582084,-0.396875 v -0.02646 c 0.211667,-0.132291 0.687917,-0.423333 0.687917,-0.714375 l -0.07937,-0.978958 a 0.65352083,0.65352083 0 0 0 0.608542,-0.608542 c 0.02646,-0.02646 0.07937,-0.05292 0.105833,-0.07938 0.132292,-0.105833 0.211667,-0.423333 -0.05292,-0.396875 a 10.882312,10.882312 0 0 0 -1.243541,0.185209 c -0.05292,0.02646 -0.105834,0.05292 -0.105834,0.132291 0,0.07937 0.238125,1.217084 0.291042,1.481667 a 0.09260417,0.09260417 0 0 1 -0.02646,0.05292 4.4979166,4.4979166 0 0 0 -0.555625,-0.02646 c -0.07938,0 -0.370417,0.02646 -0.555625,0.02646 -0.02646,0 -0.05292,-0.02646 -0.02646,-0.05292 0.05292,-0.264583 0.3175,-1.402292 0.3175,-1.402292 A 0.1984375,0.1984375 0 0 0 20.750664,9.835037 C 20.671294,9.729203 19.560039,9.62337 19.401289,9.596912 c -0.05292,0 -0.132292,0 -0.15875,0.05292 -0.105833,0.15875 0.07937,0.3175 0.211667,0.396875 a 0.65352083,0.65352083 0 0 0 0.608541,0.608542 0.02645833,0.02645833 0 0 0 0.02646,0.02646 c 0,0.05292 -0.105834,0.926042 -0.105834,0.926042 0,0.291041 0.449792,0.555625 0.687917,0.687916 0,0.02646 0.02646,0.02646 0.02646,0.05292 a 0.65087499,0.65087499 0 0 1 -0.582083,0.370417 0.64293749,0.64293749 0 0 1 -0.635,-0.635 6.4161458,6.4161458 0 0 0 -0.582083,-1.455208 c -0.343959,-0.582084 0.15875,-2.275417 0.9525,-2.460625 A 0.26458333,0.26458333 0 0 0 19.983375,7.744837 C 19.639417,7.4273373 19.269,7.0040043 18.766292,7.0040043 a 1.1191875,1.1191875 0 0 0 -1.11125,1.11125 c 0,0.714375 0.555625,0.820208 0.502708,1.005417 a 2.4050625,2.4050625 0 0 0 0.07937,1.8785407 5.4292499,5.4292499 0 0 1 0.47625,1.296459 1.3943541,1.3943541 0 0 0 0.687917,0.978958 c 0.185208,0.105833 0.07938,0.238125 0.15875,0.370417 0.02646,0.07937 0.07937,0.105833 0.132292,0.15875 0.05292,0.05292 0.02646,0.07938 -0.05292,0.05292 -0.529167,-0.05292 -1.322917,-0.291042 -1.666875,-0.978959 -0.185208,-0.370416 -0.740833,0.9525 -1.084792,0.3175 a 6.5907708,6.5907708 0 0 1 -0.687916,-1.852083 c -0.07937,-0.370417 -0.3175,0.264583 -0.423334,0.05292 a 3.8496875,3.8496875 0 0 1 -0.291041,-1.349375 c -0.02646,-1.6139577 1.190625,-2.9897907 2.831041,-3.3866657 z m 4.683125,1.164166 a 0.079375,0.079375 0 0 1 0,-0.105833 0.55562499,0.55562499 0 0 1 0.291042,-0.105833 0.50270833,0.50270833 0 0 1 0.502708,0.502708 0.56356249,0.56356249 0 0 1 -0.185208,0.396875 c -0.02646,0.02646 -0.07937,0 -0.105833,-0.02646 a 1.8309166,1.8309166 0 0 0 -0.502709,-0.661459 z m -1.137708,5.6356247 c -0.132292,0.3175 -0.555625,0.211667 -0.79375,0.396875 -0.02646,0.02646 -0.105833,0.02646 -0.105833,0 -0.238125,-0.211666 -0.687917,-0.105833 -0.820209,-0.449791 a 0.10583333,0.10583333 0 0 1 0.05292,-0.105834 1.2726458,1.2726458 0 0 0 0.79375,-0.396875 c 0.02646,-0.02646 0.07937,-0.05292 0.105833,0 a 1.2885208,1.2885208 0 0 0 0.714375,0.396875 0.13229166,0.13229166 0 0 1 0.05292,0.15875 z M 18.501718,8.5121283 c 0,0.02646 -0.05292,0.02646 -0.105834,0 a 0.52916666,0.52916666 0 0 1 -0.185208,-0.396875 0.50535416,0.50535416 0 0 1 0.846667,-0.370417 c 0.02646,0.02646 0.02646,0.105834 0,0.105834 a 2.6458333,2.6458333 0 0 0 -0.555625,0.661458 z m -4.445,6.4293747 a 1.2038542,1.2038542 0 0 0 -0.740834,0.264583 c -0.15875,0.105834 -0.211666,-0.185208 -0.02646,-0.820208 0.15875,-0.502708 -0.820208,-0.767292 -1.058333,-0.529167 a 1.3520208,1.3520208 0 0 1 -1.957917,-0.105833 c -0.15875,-0.15875 0.370417,-0.105833 0.396875,-0.264583 a 1.0212917,1.0212917 0 0 1 0.343958,-0.449792 0.13758333,0.13758333 0 0 0 -0.02646,-0.211667 0.90487499,0.90487499 0 0 1 -0.502708,-0.9525 c 0,-0.07938 -0.423333,-0.105833 -0.291042,-0.238125 0.767292,-0.714375 1.5875,-0.264583 1.931458,-0.02646 0.05292,0.02646 0.185209,0.02646 0.185209,-0.07938 0.02646,-0.238124 -0.105834,-0.370416 0.370416,-0.767291 0.07937,-0.07938 -0.264583,-0.370417 -0.02646,-0.370417 1.5875,0.396875 0.873125,2.037292 1.190625,2.328333 0.608542,0.529167 2.06375,0.9525 3.439583,1.243542 0.105834,0.02646 0.555625,0.185208 0.635,0.211667 1.11125,0.555625 1.772709,0.502708 2.38125,0.264583 0.185209,-0.07938 0.185209,0.15875 0.132292,0.238125 -2.196042,2.090208 -3.862917,1.561042 -4.471458,1.190625 -0.423334,-0.264583 -1.243542,-0.264583 -1.640417,0.264583 -0.07937,0.05292 -0.185208,0.105834 -0.238125,-0.05292 a 1.2752917,1.2752917 0 0 1 0.132292,-0.9525 c 0.105833,-0.132291 -0.07937,-0.185208 -0.15875,-0.185208 z m 20.981458,1.957917 a 2.3045208,2.3045208 0 0 1 -1.666875,0.502708 0.66410416,0.66410416 0 0 0 -0.608542,0.185208 0.46037499,0.46037499 0 0 0 -0.07937,0.185209 0.65352083,0.65352083 0 0 0 0.105834,0.502708 q 0.119062,0.198438 -0.07938,0.238125 a 1.127125,1.127125 0 0 1 -0.687917,-0.132292 c -0.15875,-0.07937 -0.211667,0.02646 -0.211667,0.105834 a 0.52916666,0.52916666 0 0 0 0.291042,0.555625 c 0.132292,0.105833 0.105833,0.211666 -0.07937,0.264583 -0.3175,0.105833 -0.608542,-0.02646 -1.058333,-0.291042 -0.264584,-0.15875 -0.47625,-0.185208 -0.661459,0.05292 -0.105833,0.132292 -0.105833,0.238125 -0.02646,0.291042 0.185208,0.185208 0.291042,0.529167 -0.15875,1.084792 -0.15875,0.185208 -0.3175,-0.3175 -0.449792,-0.264584 a 1.0345208,1.0345208 0 0 1 -1.296458,-0.343958 0.16404166,0.16404166 0 0 0 -0.238125,0 c -0.3175,0.211667 -0.9525,0.555625 -1.217083,-0.05292 -0.02646,-0.07937 -0.396875,0.132292 -0.396875,-0.02646 0.02646,-0.978958 0.873125,-1.164167 1.217083,-1.190625 q 0.15875,0 0.07937,-0.15875 c -0.132292,-0.211667 -0.3175,-0.47625 -0.211667,-0.767292 0.07937,-0.211666 -0.502708,-0.264583 -0.264583,-0.370416 1.11125,-0.555625 1.74625,0.502708 1.931458,0.635 0.3175,0.185208 1.799167,-0.291042 1.957917,-1.084792 0.02646,-0.15875 -0.343958,-0.211667 -0.714375,-0.3175 -0.07938,-0.02646 -0.105833,-0.105833 0.02646,-0.211667 0.899584,-0.661458 1.5875,-1.508125 3.201459,-1.666875 a 0.26458333,0.26458333 0 0 1 0.291041,0.211667 2.2277916,2.2277916 0 0 0 0.211667,0.714375 2.7887083,2.7887083 0 0 0 0.79375,1.031875 0.24077083,0.24077083 0 0 1 0,0.3175 z m 6.720416,-0.502709 c 0.132292,0.07937 0.132292,0.15875 0.05292,0.264584 -0.07938,0.105833 -0.264583,0.185208 -0.661458,0.185208 -0.185209,0 -0.15875,0.105833 -0.15875,0.185208 0.02646,0.185209 0.238125,0.3175 0.502708,0.343959 0.15875,0.02646 0.185208,0.132291 0.05292,0.291041 -0.238125,0.238125 -0.555625,0.238125 -1.084792,0.211667 -0.529167,-0.02646 -0.899583,0.582083 -0.608542,0.846667 0.185209,0.15875 0.608542,0.555625 0.264584,1.561041 -0.105834,0.3175 -0.291042,-0.291041 -0.449792,-0.185208 -0.423333,0.238125 -0.767292,-0.05292 -0.9525,-0.291042 -0.07937,-0.105833 -0.15875,-0.105833 -0.211667,0 -0.15875,0.291042 -0.608541,0.79375 -1.481666,0.3175 -0.185208,-0.105833 -0.582083,0.238125 -0.608542,0.132292 a 1.2197292,1.2197292 0 0 1 0.502709,-1.296458 c 0.02646,-0.02646 0.132291,-0.185209 -0.05292,-0.185209 -0.291042,-0.02646 -0.661458,-0.105833 -0.687917,-0.47625 0,-0.07938 -0.370416,-0.05292 -0.370416,-0.15875 0.07937,-0.502708 1.190625,-0.873125 1.957916,-0.370416 0.635,0.423333 1.455208,-1.031875 0.873125,-1.719792 -0.423333,-0.502708 -2.883958,0.873125 -3.730625,-0.899583 -0.343958,-0.714375 0.07937,-1.322917 -0.264583,-1.375834 -0.343958,-0.05292 -1.878542,-0.370416 -3.598333,1.005417 -2.910417,2.328333 -6.058959,1.058333 -6.799792,0.529167 -0.105833,-0.02646 -0.238125,0.05292 -0.185208,0.185208 a 0.76729166,0.76729166 0 0 1 -0.07937,0.79375 c -0.291042,0.449792 -1.349375,0.926042 -1.534584,0.978958 -1.217083,0.370417 -1.084791,1.296459 -0.9525,1.719792 0.02646,0.132292 0,0.211667 -0.132291,0.185208 -0.370417,-0.07937 -1.137709,-0.291041 -1.42875,-1.031875 -0.05292,-0.07937 -0.132292,-0.07937 -0.238125,-0.02646 a 0.74877082,0.74877082 0 0 0 -0.185209,1.005417 c 0.05292,0.07937 0.02646,0.15875 -0.07937,0.185208 -0.423333,0.05292 -0.714375,-0.423333 -1.084791,-0.396875 a 1.7118541,1.7118541 0 0 0 -0.661459,0.3175 c -0.07937,0.05292 -0.07937,0.15875 -0.02646,0.291042 0.449792,1.349375 -0.291042,1.402292 -0.343958,1.375833 -0.05292,-0.02646 -0.02646,-0.264583 -0.238125,-0.291041 a 0.82549999,0.82549999 0 0 1 -0.978959,-0.79375 c -0.02646,-0.105834 -0.05292,-0.15875 -0.132291,-0.105834 -0.291042,0.185209 -0.9525,0.582084 -1.402292,0.02646 -0.05292,-0.07937 -0.264583,0 -0.370417,0.05292 -0.105833,0.05292 -0.07937,-0.105833 -0.07937,-0.15875 a 1.4366875,1.4366875 0 0 1 0.873125,-1.243541 c 0.105834,-0.05292 0.105834,-0.105834 0.02646,-0.15875 -0.238125,-0.185209 -0.635,-0.555625 -0.502709,-0.9525 0.02646,-0.07937 -0.343958,-0.211667 -0.238125,-0.291042 0.846667,-0.608542 1.931459,0.396875 2.06375,0.502708 0.132292,0.105834 0.926042,0.132292 2.883959,-0.9525 1.243541,-0.687916 1.905,-1.27 2.248958,-1.719791 a 0.50270833,0.50270833 0 0 1 0.264583,-0.15875 c 0.79375,-0.02646 1.561042,-0.132292 2.169584,-0.687917 0.105833,-0.105833 0.211666,-0.05292 0.238125,0 1.11125,0.767292 1.693333,-0.9525 1.931458,-1.74625 0.02646,-0.15875 0.05292,-0.291042 0.238125,-0.291042 4.1275,0.185209 11.959166,0.15875 11.959166,0.15875 0,0 1.031875,0.07938 0.978959,-0.555625 -0.07937,-1.031875 -4.339167,-1.005417 -7.540625,-0.555625 -1.164167,0.15875 -2.831042,0.238125 -3.836458,-0.132291 A 1.7647708,1.7647708 0 0 1 26.941943,10.099628 1.3387916,1.3387916 0 0 1 26.83611,9.1735863 2.3600833,2.3600833 0 0 1 27.100693,8.5650453 c 0.820208,-1.27 2.69875,-1.349375 3.280833,-1.349375 0.105834,0 0.185209,-0.05292 0.185209,-0.132292 a 1.1668125,1.1668125 0 0 1 1.058333,-1.005417 2.6035,2.6035 0 0 0 0.582083,-0.15875 c 0.105834,-0.05292 0.15875,-0.02646 0.132292,0.05292 a 0.73818749,0.73818749 0 0 1 -0.185208,0.343958 c -0.555625,0.47625 -0.47625,0.687917 -0.396875,0.767292 0.02646,0.02646 0.07938,0.02646 0.132291,-0.02646 1.693334,-1.455209 2.672292,-0.502709 2.963334,-0.185209 0.05292,0.05292 0.05292,0.132292 -0.02646,0.15875 -1.137708,0.264584 -1.5875,1.27 -3.915833,1.11125 -0.291042,-0.02646 -2.196042,-0.105833 -2.804583,0.740834 -0.343959,0.502708 -0.105834,0.978958 0.926041,1.1906247 0.79375,0.15875 2.619375,-0.1058337 3.466042,-0.1587497 0.846667,-0.05292 4.524375,-0.529167 6.455833,0.02646 0.820208,0.2381247 1.984375,0.8731247 1.772708,2.1166667 A 1.6457083,1.6457083 0 0 1 39.82715,13.14234 c 0,0 -2.116667,1.481666 1.666875,1.508125 1.164167,0 0.02646,0.978958 -0.05292,1.27 -0.05292,0.185208 0.132292,0.370416 0.3175,0.47625 z M 34.800051,8.1681703 a 1.4684375,1.4684375 0 0 0 -0.449792,0.185208 c -0.343958,0.238125 -1.719791,0.79375 -2.143125,0.105833 a 2.8336875,2.8336875 0 0 0 1.5875,-0.582083 c 0,0 0.661459,-0.238125 1.058334,0.132292 0.02646,0.05292 0.05292,0.132291 -0.05292,0.15875 z m -9.04875,-7.59354202 c -12.911667,0 -25.77041644,3.43958302 -25.77041644,3.43958302 V 21.18567 c 0,15.478124 11.08604144,31.564791 25.74395844,34.342916 C 40.938384,52.565252 51.495259,36.663794 51.495259,21.18567 V 4.0142113 c 0,0 -10.768542,-3.43958302 -25.743958,-3.43958302 z m 21.9075,26.85520772 c 0,12.594166 -9.577917,24.050625 -21.933958,24.050625 v 0 C 13.368801,51.454002 3.7908846,40.024002 3.7908846,27.429836 V 5.7340033 l 0.3175,-0.105833 c 0.02646,0 11.1389584,-3.439584 21.6164584,-3.439584 10.4775,0 21.616458,3.439584 21.616458,3.439584 l 0.3175,0.105833 z"
       id="path57"
       style="fill:#363636;stroke-width:0.264583" />
  </g>
</svg>
